<svg width="1024" height="1024" xmlns="http://www.w3.org/2000/svg" preserveAspectRatio="xMidYMid meet" version="1.0">

 <g>
  <title>Layer 1</title>
  <g id="svg_1" fill="#000000" transform="translate(0 1024) scale(0.1 -0.1)">
   <path fill="#ff0110" id="svg_2" d="m5310,10160c-503,-40 -960,-135 -1396,-288c-576,-203 -1125,-515 -1574,-896c-559,-473 -1003,-1053 -1303,-1702c-246,-532 -390,-1070 -453,-1694c-21,-202 -24,-710 -5,-915c98,-1116 516,-2114 1222,-2919c1048,-1196 2594,-1817 4272,-1716c1004,61 1890,334 2672,823c334,209 685,503 881,740l73,88l-121,192c-778,1232 -1551,2454 -1558,2461c-4,4 -77,17 -161,29c-133,18 -155,18 -174,6c-12,-8 -79,-57 -148,-109c-385,-291 -801,-477 -1198,-536c-152,-22 -420,-15 -561,15c-261,56 -472,167 -653,342c-215,208 -345,468 -391,782c-22,150 -15,419 15,559c180,835 988,1253 1891,980c345,-105 661,-280 1037,-575c23,-18 27,-18 181,3c86,12 160,24 163,28c4,4 383,603 842,1331l836,1324l-62,75c-235,287 -640,611 -1068,857c-668,384 -1409,614 -2259,701c-179,18 -834,27 -1000,14z"/>
  </g>
 </g>
</svg>